<mxfile host="app.diagrams.net" modified="2023-12-06T23:12:06.896Z" agent="Mozilla/5.0 (Windows NT 10.0; Win64; x64) AppleWebKit/537.36 (KHTML, like Gecko) Chrome/119.0.0.0 Safari/537.36" etag="LVv95lTHbVffFk7tB4Wj" version="22.1.7" type="github">
  <diagram name="Сторінка-1" id="hBKNyw_i9zzFcSzgAf2W">
    <mxGraphModel dx="1655" dy="905" grid="1" gridSize="10" guides="1" tooltips="1" connect="1" arrows="1" fold="1" page="1" pageScale="1" pageWidth="827" pageHeight="1169" math="0" shadow="0">
      <root>
        <mxCell id="0" />
        <mxCell id="1" parent="0" />
        <mxCell id="rLDyrU-tx4LfPrTBMmk--1" value="&lt;b&gt;(Я)&lt;br&gt;Пасічко Софія Андріївна (2006&amp;nbsp; р.н.)&lt;/b&gt;" style="rounded=1;whiteSpace=wrap;html=1;fillColor=#FAD9D5;strokeColor=#D0CEE2;labelBackgroundColor=none;fontColor=#1A1A1A;" vertex="1" parent="1">
          <mxGeometry x="320" y="40" width="146" height="60" as="geometry" />
        </mxCell>
        <mxCell id="rLDyrU-tx4LfPrTBMmk--2" value="&lt;b&gt;Мама&amp;nbsp;&lt;br&gt;Пасічко (Янковчук) Євгенія Володимирівна (1981 р.н.)&lt;/b&gt;" style="rounded=1;whiteSpace=wrap;html=1;fillColor=#FAD9D5;strokeColor=#D0CEE2;labelBackgroundColor=none;fontColor=#1A1A1A;" vertex="1" parent="1">
          <mxGeometry x="300" y="140" width="146" height="60" as="geometry" />
        </mxCell>
        <mxCell id="rLDyrU-tx4LfPrTBMmk--3" value="&lt;b&gt;Мамина сестра&lt;br&gt;Гончарук Наталія Григоріївна (1975 р.н.)&lt;/b&gt;" style="rounded=1;whiteSpace=wrap;html=1;fillColor=#FAD9D5;strokeColor=#D0CEE2;labelBackgroundColor=none;fontColor=#1A1A1A;" vertex="1" parent="1">
          <mxGeometry x="130" y="140" width="146" height="60" as="geometry" />
        </mxCell>
        <mxCell id="rLDyrU-tx4LfPrTBMmk--4" value="&lt;b&gt;Тато&lt;br&gt;Пасічко Андрій Іванович&amp;nbsp;&lt;br&gt;(1981 р.н.)&lt;/b&gt;" style="rounded=1;whiteSpace=wrap;html=1;fillColor=#FAD9D5;strokeColor=#D0CEE2;labelBackgroundColor=none;fontColor=#1A1A1A;" vertex="1" parent="1">
          <mxGeometry x="570" y="140" width="146" height="60" as="geometry" />
        </mxCell>
        <mxCell id="rLDyrU-tx4LfPrTBMmk--6" value="&lt;b&gt;Дідусь&lt;br&gt;Янковчук Володимир Миколайович&lt;br&gt;(1949-2021)&lt;/b&gt;" style="rounded=1;whiteSpace=wrap;html=1;fillColor=#FAD9D5;strokeColor=#D0CEE2;labelBackgroundColor=none;fontColor=#1A1A1A;" vertex="1" parent="1">
          <mxGeometry x="380" y="250" width="146" height="60" as="geometry" />
        </mxCell>
        <mxCell id="rLDyrU-tx4LfPrTBMmk--7" value="&lt;b&gt;Бабуся&lt;br&gt;Кривогубченко Ніна Василівна (1954 р.н)&lt;/b&gt;" style="rounded=1;whiteSpace=wrap;html=1;fillColor=#FAD9D5;strokeColor=#D0CEE2;labelBackgroundColor=none;fontColor=#1A1A1A;" vertex="1" parent="1">
          <mxGeometry x="160" y="250" width="146" height="60" as="geometry" />
        </mxCell>
        <mxCell id="rLDyrU-tx4LfPrTBMmk--8" value="&lt;b&gt;Дідусева сестра&lt;br&gt;Янковчук Ольга Миколаївна&lt;br&gt;(1952 р.н.)&lt;/b&gt;" style="rounded=1;whiteSpace=wrap;html=1;fillColor=#FAD9D5;strokeColor=#D0CEE2;labelBackgroundColor=none;fontColor=#1A1A1A;" vertex="1" parent="1">
          <mxGeometry x="570" y="250" width="146" height="60" as="geometry" />
        </mxCell>
        <mxCell id="rLDyrU-tx4LfPrTBMmk--9" value="&lt;b&gt;Прабабця&lt;br&gt;Семенцова Олена Олександрівна (1923-2009)&lt;/b&gt;" style="rounded=1;whiteSpace=wrap;html=1;fillColor=#FAD9D5;strokeColor=#D0CEE2;labelBackgroundColor=none;fontColor=#1A1A1A;" vertex="1" parent="1">
          <mxGeometry x="370" y="370" width="146" height="60" as="geometry" />
        </mxCell>
        <mxCell id="rLDyrU-tx4LfPrTBMmk--10" value="&lt;b&gt;Прадідусь&lt;br&gt;Янковчук Микола Іванович (1918-1972)&lt;/b&gt;" style="rounded=1;whiteSpace=wrap;html=1;fillColor=#FAD9D5;strokeColor=#D0CEE2;labelBackgroundColor=none;fontColor=#1A1A1A;" vertex="1" parent="1">
          <mxGeometry x="560" y="370" width="146" height="60" as="geometry" />
        </mxCell>
        <mxCell id="rLDyrU-tx4LfPrTBMmk--18" value="" style="endArrow=none;html=1;rounded=0;strokeColor=#09555B;fontColor=#1A1A1A;exitX=1;exitY=0.5;exitDx=0;exitDy=0;entryX=0;entryY=0.5;entryDx=0;entryDy=0;" edge="1" parent="1" source="rLDyrU-tx4LfPrTBMmk--2" target="rLDyrU-tx4LfPrTBMmk--4">
          <mxGeometry width="50" height="50" relative="1" as="geometry">
            <mxPoint x="660" y="300" as="sourcePoint" />
            <mxPoint x="710" y="250" as="targetPoint" />
          </mxGeometry>
        </mxCell>
        <mxCell id="rLDyrU-tx4LfPrTBMmk--19" value="" style="endArrow=none;html=1;rounded=0;strokeColor=#09555B;fontColor=#1A1A1A;exitX=0.5;exitY=1;exitDx=0;exitDy=0;" edge="1" parent="1" source="rLDyrU-tx4LfPrTBMmk--1">
          <mxGeometry width="50" height="50" relative="1" as="geometry">
            <mxPoint x="660" y="300" as="sourcePoint" />
            <mxPoint x="520" y="170" as="targetPoint" />
            <Array as="points">
              <mxPoint x="393" y="120" />
              <mxPoint x="520" y="120" />
            </Array>
          </mxGeometry>
        </mxCell>
        <mxCell id="rLDyrU-tx4LfPrTBMmk--21" value="" style="endArrow=none;html=1;rounded=0;strokeColor=#09555B;fontColor=#1A1A1A;exitX=1;exitY=0.5;exitDx=0;exitDy=0;entryX=0;entryY=0.5;entryDx=0;entryDy=0;" edge="1" parent="1" source="rLDyrU-tx4LfPrTBMmk--7" target="rLDyrU-tx4LfPrTBMmk--6">
          <mxGeometry width="50" height="50" relative="1" as="geometry">
            <mxPoint x="550" y="340" as="sourcePoint" />
            <mxPoint x="600" y="290" as="targetPoint" />
          </mxGeometry>
        </mxCell>
        <mxCell id="rLDyrU-tx4LfPrTBMmk--23" value="" style="endArrow=none;html=1;rounded=0;strokeColor=#09555B;fontColor=#1A1A1A;entryX=0.5;entryY=1;entryDx=0;entryDy=0;" edge="1" parent="1" target="rLDyrU-tx4LfPrTBMmk--2">
          <mxGeometry width="50" height="50" relative="1" as="geometry">
            <mxPoint x="200" y="200" as="sourcePoint" />
            <mxPoint x="370" y="240.00000000000006" as="targetPoint" />
            <Array as="points">
              <mxPoint x="200" y="220" />
              <mxPoint x="220" y="220" />
              <mxPoint x="307" y="220" />
              <mxPoint x="373" y="220" />
            </Array>
          </mxGeometry>
        </mxCell>
        <mxCell id="rLDyrU-tx4LfPrTBMmk--26" value="" style="endArrow=none;html=1;rounded=0;strokeColor=#09555B;fontColor=#1A1A1A;exitX=1;exitY=0.5;exitDx=0;exitDy=0;entryX=0;entryY=0.5;entryDx=0;entryDy=0;" edge="1" parent="1" source="rLDyrU-tx4LfPrTBMmk--9" target="rLDyrU-tx4LfPrTBMmk--10">
          <mxGeometry width="50" height="50" relative="1" as="geometry">
            <mxPoint x="580" y="500" as="sourcePoint" />
            <mxPoint x="630" y="450" as="targetPoint" />
          </mxGeometry>
        </mxCell>
        <mxCell id="rLDyrU-tx4LfPrTBMmk--27" value="" style="endArrow=none;html=1;rounded=0;strokeColor=#09555B;fontColor=#1A1A1A;exitX=0.5;exitY=1;exitDx=0;exitDy=0;entryX=0.5;entryY=1;entryDx=0;entryDy=0;shadow=0;" edge="1" parent="1" source="rLDyrU-tx4LfPrTBMmk--8" target="rLDyrU-tx4LfPrTBMmk--6">
          <mxGeometry width="50" height="50" relative="1" as="geometry">
            <mxPoint x="470" y="460" as="sourcePoint" />
            <mxPoint x="280" y="460" as="targetPoint" />
            <Array as="points">
              <mxPoint x="643" y="340" />
              <mxPoint x="540" y="340" />
              <mxPoint x="453" y="340" />
            </Array>
          </mxGeometry>
        </mxCell>
        <mxCell id="rLDyrU-tx4LfPrTBMmk--28" value="" style="endArrow=none;html=1;rounded=0;strokeColor=#09555B;fontColor=#1A1A1A;" edge="1" parent="1">
          <mxGeometry width="50" height="50" relative="1" as="geometry">
            <mxPoint x="540" y="400" as="sourcePoint" />
            <mxPoint x="540" y="340" as="targetPoint" />
          </mxGeometry>
        </mxCell>
        <mxCell id="rLDyrU-tx4LfPrTBMmk--29" value="" style="endArrow=none;html=1;rounded=0;strokeColor=#09555B;fontColor=#1A1A1A;" edge="1" parent="1">
          <mxGeometry width="50" height="50" relative="1" as="geometry">
            <mxPoint x="340" y="280" as="sourcePoint" />
            <mxPoint x="340" y="220" as="targetPoint" />
          </mxGeometry>
        </mxCell>
        <mxCell id="rLDyrU-tx4LfPrTBMmk--30" value="&lt;b&gt;Прапрабабця Кобаль Марія Петрівна&amp;nbsp;&lt;/b&gt;" style="rounded=1;whiteSpace=wrap;html=1;fillColor=#FAD9D5;strokeColor=#D0CEE2;labelBackgroundColor=none;fontColor=#1A1A1A;" vertex="1" parent="1">
          <mxGeometry x="300" y="470" width="146" height="60" as="geometry" />
        </mxCell>
        <mxCell id="rLDyrU-tx4LfPrTBMmk--31" value="&lt;b&gt;Прапрадідусь Семенцов Олександр Іванович&lt;/b&gt;" style="rounded=1;whiteSpace=wrap;html=1;fillColor=#FAD9D5;strokeColor=#D0CEE2;labelBackgroundColor=none;fontColor=#1A1A1A;" vertex="1" parent="1">
          <mxGeometry x="480" y="470" width="146" height="60" as="geometry" />
        </mxCell>
        <mxCell id="rLDyrU-tx4LfPrTBMmk--32" value="" style="endArrow=none;html=1;rounded=0;strokeColor=#09555B;fontColor=#1A1A1A;exitX=1;exitY=0.5;exitDx=0;exitDy=0;entryX=0;entryY=0.5;entryDx=0;entryDy=0;" edge="1" parent="1" source="rLDyrU-tx4LfPrTBMmk--30" target="rLDyrU-tx4LfPrTBMmk--31">
          <mxGeometry width="50" height="50" relative="1" as="geometry">
            <mxPoint x="550" y="430" as="sourcePoint" />
            <mxPoint x="600" y="380" as="targetPoint" />
          </mxGeometry>
        </mxCell>
        <mxCell id="rLDyrU-tx4LfPrTBMmk--36" value="" style="endArrow=none;html=1;rounded=0;strokeColor=#09555B;fontColor=#1A1A1A;entryX=0.5;entryY=1;entryDx=0;entryDy=0;" edge="1" parent="1" target="rLDyrU-tx4LfPrTBMmk--9">
          <mxGeometry width="50" height="50" relative="1" as="geometry">
            <mxPoint x="470" y="500" as="sourcePoint" />
            <mxPoint x="600" y="470" as="targetPoint" />
            <Array as="points">
              <mxPoint x="470" y="460" />
              <mxPoint x="443" y="460" />
            </Array>
          </mxGeometry>
        </mxCell>
        <mxCell id="rLDyrU-tx4LfPrTBMmk--37" value="&lt;b&gt;Прапрабабця Янковчук Ярина&lt;/b&gt;" style="rounded=1;whiteSpace=wrap;html=1;fillColor=#FAD9D5;strokeColor=#D0CEE2;labelBackgroundColor=none;fontColor=#1A1A1A;" vertex="1" parent="1">
          <mxGeometry x="681" y="470" width="146" height="60" as="geometry" />
        </mxCell>
        <mxCell id="rLDyrU-tx4LfPrTBMmk--38" value="&lt;b&gt;Прапрадідусь Янковчук Іван&lt;/b&gt;" style="rounded=1;whiteSpace=wrap;html=1;fillColor=#FAD9D5;strokeColor=#D0CEE2;labelBackgroundColor=none;fontColor=#1A1A1A;" vertex="1" parent="1">
          <mxGeometry x="860" y="470" width="146" height="60" as="geometry" />
        </mxCell>
        <mxCell id="rLDyrU-tx4LfPrTBMmk--39" value="" style="endArrow=none;html=1;rounded=0;strokeColor=#09555B;fontColor=#1A1A1A;entryX=0;entryY=0.5;entryDx=0;entryDy=0;exitX=1;exitY=0.5;exitDx=0;exitDy=0;" edge="1" parent="1" source="rLDyrU-tx4LfPrTBMmk--37" target="rLDyrU-tx4LfPrTBMmk--38">
          <mxGeometry width="50" height="50" relative="1" as="geometry">
            <mxPoint x="780" y="490" as="sourcePoint" />
            <mxPoint x="830" y="440" as="targetPoint" />
          </mxGeometry>
        </mxCell>
        <mxCell id="rLDyrU-tx4LfPrTBMmk--40" value="" style="endArrow=none;html=1;rounded=0;strokeColor=#09555B;fontColor=#1A1A1A;entryX=0.5;entryY=1;entryDx=0;entryDy=0;" edge="1" parent="1" target="rLDyrU-tx4LfPrTBMmk--10">
          <mxGeometry width="50" height="50" relative="1" as="geometry">
            <mxPoint x="850" y="500" as="sourcePoint" />
            <mxPoint x="830" y="440" as="targetPoint" />
            <Array as="points">
              <mxPoint x="850" y="460" />
              <mxPoint x="633" y="460" />
            </Array>
          </mxGeometry>
        </mxCell>
      </root>
    </mxGraphModel>
  </diagram>
</mxfile>
